<svg width="939" height="444" viewBox="0 0 939 444" fill="none" xmlns="http://www.w3.org/2000/svg">
<path d="M440.928 187.696V229.68C440.928 256.56 432.096 271.28 410.08 271.28C393.824 271.28 384.608 263.088 379.744 255.536L384.096 240.816H385.376C387.808 257.456 395.36 270 410.592 270C426.336 270 430.816 256.688 430.816 232.24V187.696C430.816 184.24 428.512 181.936 425.056 181.936H424.416V180.656H447.328V181.936H446.688C443.232 181.936 440.928 184.24 440.928 187.696ZM503.659 270C506.987 266.8 504.683 258.352 500.971 247.6L493.163 226.096C495.595 253.488 487.915 270.384 468.075 270.384C448.107 270.384 446.699 252.976 454.507 231.6L473.963 177.584C471.147 172.848 468.331 169.264 466.411 167.472H482.283L511.723 248.368C515.947 258.736 521.835 266.928 525.035 270H503.659ZM457.323 231.344C449.515 252.848 450.411 267.824 468.075 267.824C477.035 267.824 482.667 260.528 484.331 247.472C484.971 237.488 479.979 233.136 472.555 232.624L484.203 226.736L492.011 222.896L479.723 189.104C478.443 186.032 477.035 183.088 475.627 180.4L457.323 231.344ZM539.672 268.72H541.72V270H526.104V268.72H526.744C530.2 268.72 533.912 266.928 535.96 264.112L561.56 229.296L535.192 186.8C533.4 183.856 529.816 181.936 526.36 181.936H525.72V180.656H551.832V181.936H550.04C546.584 181.936 545.432 183.856 547.352 186.8L568.216 220.336L593.176 186.544C595.224 183.728 594.328 181.936 590.872 181.936H588.952V180.656H604.568V181.936H603.928C600.472 181.936 596.76 183.728 594.712 186.544L568.856 221.488L595.096 263.856C597.016 266.8 600.472 268.72 603.928 268.72H604.696V270H578.584V268.72H580.504C583.832 268.72 584.856 266.8 583.064 263.856L562.328 230.448L537.368 264.112C535.32 266.928 536.216 268.72 539.672 268.72ZM674.216 181.936H673.576C670.248 181.936 667.944 184.24 667.944 187.696V268.72H697.256C706.472 268.72 713.896 262.704 715.56 253.616L716.328 249.648H717.608L713.768 270H651.304V268.72H651.944C655.4 268.72 657.704 266.416 657.704 262.96V187.696C657.704 184.24 655.4 181.936 651.944 181.936H651.304V180.656H674.216V181.936ZM754.671 271.28C735.983 271.28 723.311 259.12 723.311 240.944V187.696C723.311 184.24 721.007 181.936 717.551 181.936H716.911V180.656H739.823V181.936H739.183C735.855 181.936 733.551 184.24 733.551 187.696V239.024C733.551 256.56 743.535 268.72 758.639 268.72C773.615 268.72 783.215 256.944 783.215 240.56V187.696C783.215 184.24 780.911 181.936 777.455 181.936H776.815V180.656H790.895V181.936H790.255C786.799 181.936 784.495 184.24 784.495 187.696V240.944C784.495 259.632 772.975 271.28 754.671 271.28ZM805.172 268.72H807.22V270H791.604V268.72H792.244C795.7 268.72 799.412 266.928 801.46 264.112L827.06 229.296L800.692 186.8C798.9 183.856 795.316 181.936 791.86 181.936H791.22V180.656H817.332V181.936H815.54C812.084 181.936 810.932 183.856 812.852 186.8L833.716 220.336L858.676 186.544C860.724 183.728 859.828 181.936 856.372 181.936H854.452V180.656H870.068V181.936H869.428C865.972 181.936 862.26 183.728 860.212 186.544L834.356 221.488L860.596 263.856C862.516 266.8 865.972 268.72 869.428 268.72H870.196V270H844.084V268.72H846.004C849.332 268.72 850.356 266.8 848.564 263.856L827.828 230.448L802.868 264.112C800.82 266.928 801.716 268.72 805.172 268.72ZM904.459 225.968H887.819V268.72H915.851C925.067 268.72 932.491 262.704 934.155 253.616L934.923 249.648H936.203L932.363 270H871.179V268.72H871.819C875.275 268.72 877.579 266.416 877.579 262.96V187.696C877.579 184.24 875.275 181.936 871.819 181.936H871.179V180.656H931.083L934.923 201.136H933.643L932.875 197.04C931.083 187.952 923.787 181.936 914.571 181.936H887.819V224.688H904.459C909.707 224.688 913.291 221.104 913.291 215.856V215.728H914.571V234.928H913.291V234.8C913.291 229.552 909.707 225.968 904.459 225.968Z" fill="#201A21"/>
<path d="M145.36 99.1777V162.585C145.36 203.181 132.021 225.412 98.7707 225.412C74.2197 225.412 60.3011 213.04 52.9551 201.635L59.5278 179.404H61.4609C65.1339 204.534 76.5395 223.479 99.544 223.479C123.322 223.479 130.088 203.375 130.088 166.451V99.1777C130.088 93.9582 126.608 90.4786 121.389 90.4786H120.422V88.5454H155.025V90.4786H154.059C148.839 90.4786 145.36 93.9582 145.36 99.1777Z" fill="#201A21"/>
<path d="M116.782 298.067H119.875V300H96.2909V298.067H97.2575C102.477 298.067 108.083 295.36 111.176 291.107L149.839 238.526L110.016 174.345C107.31 169.899 101.897 166.999 96.6775 166.999H95.7109V165.066H135.147V166.999H132.441C127.221 166.999 125.481 169.899 128.381 174.345L159.892 224.994L197.588 173.958C200.681 169.705 199.328 166.999 194.108 166.999H191.209V165.066H214.793V166.999H213.826C208.607 166.999 203.001 169.705 199.908 173.958L160.858 226.733L200.488 290.721C203.387 295.167 208.607 298.067 213.826 298.067H214.986V300H175.55V298.067H178.45C183.476 298.067 185.023 295.167 182.316 290.721L150.999 240.265L113.303 291.107C110.21 295.36 111.563 298.067 116.782 298.067Z" fill="#201A21"/>
<path d="M196.139 233.451H195.172C190.146 233.451 186.666 236.931 186.666 242.15V364.519H230.935C244.854 364.519 256.066 355.433 258.579 341.708L259.739 335.715H261.672L255.873 366.452H161.535V364.519H162.502C167.721 364.519 171.201 361.039 171.201 355.82V242.15C171.201 236.931 167.721 233.451 162.502 233.451H161.535V231.518H196.139V233.451Z" fill="#201A21"/>
<rect x="16.582" y="17.5684" width="278.918" height="411.822" rx="96.5" stroke="#201A21" stroke-width="3"/>
<rect x="1.5" y="1.5" width="309" height="441" rx="96.5" stroke="#201A21" stroke-width="3"/>
<path d="M573.96 338.205C573.33 338.205 572.788 337.979 572.337 337.527C571.885 337.075 571.659 336.534 571.659 335.903C571.659 335.273 571.885 334.732 572.337 334.28C572.788 333.828 573.33 333.602 573.96 333.602C574.591 333.602 575.132 333.828 575.584 334.28C576.036 334.732 576.261 335.273 576.261 335.903C576.261 336.321 576.155 336.705 575.942 337.054C575.737 337.403 575.46 337.685 575.111 337.898C574.77 338.102 574.386 338.205 573.96 338.205ZM583.874 338.205C583.244 338.205 582.702 337.979 582.251 337.527C581.799 337.075 581.573 336.534 581.573 335.903C581.573 335.273 581.799 334.732 582.251 334.28C582.702 333.828 583.244 333.602 583.874 333.602C584.505 333.602 585.046 333.828 585.498 334.28C585.95 334.732 586.175 335.273 586.175 335.903C586.175 336.321 586.069 336.705 585.856 337.054C585.651 337.403 585.374 337.685 585.025 337.898C584.684 338.102 584.3 338.205 583.874 338.205ZM593.788 338.205C593.158 338.205 592.616 337.979 592.165 337.527C591.713 337.075 591.487 336.534 591.487 335.903C591.487 335.273 591.713 334.732 592.165 334.28C592.616 333.828 593.158 333.602 593.788 333.602C594.419 333.602 594.96 333.828 595.412 334.28C595.864 334.732 596.089 335.273 596.089 335.903C596.089 336.321 595.983 336.705 595.77 337.054C595.565 337.403 595.288 337.685 594.939 337.898C594.598 338.102 594.214 338.205 593.788 338.205ZM609.481 338.409C607.64 338.409 606.055 337.974 604.725 337.105C603.396 336.236 602.373 335.038 601.657 333.513C600.941 331.987 600.583 330.244 600.583 328.284C600.583 326.29 600.95 324.53 601.683 323.004C602.424 321.47 603.455 320.273 604.776 319.412C606.106 318.543 607.657 318.108 609.43 318.108C610.81 318.108 612.055 318.364 613.163 318.875C614.271 319.386 615.178 320.102 615.886 321.023C616.593 321.943 617.032 323.017 617.202 324.244H614.185C613.955 323.349 613.444 322.557 612.651 321.866C611.867 321.168 610.81 320.818 609.481 320.818C608.305 320.818 607.273 321.125 606.387 321.739C605.509 322.344 604.823 323.2 604.329 324.308C603.843 325.408 603.6 326.699 603.6 328.182C603.6 329.699 603.839 331.02 604.316 332.145C604.802 333.27 605.484 334.143 606.362 334.766C607.248 335.388 608.288 335.699 609.481 335.699C610.265 335.699 610.977 335.562 611.616 335.29C612.255 335.017 612.796 334.625 613.239 334.114C613.683 333.602 613.998 332.989 614.185 332.273H617.202C617.032 333.432 616.61 334.476 615.937 335.405C615.272 336.325 614.39 337.058 613.29 337.604C612.2 338.141 610.93 338.409 609.481 338.409ZM627.391 338.46C626.147 338.46 625.018 338.226 624.004 337.757C622.989 337.28 622.184 336.594 621.587 335.699C620.991 334.795 620.692 333.705 620.692 332.426C620.692 331.301 620.914 330.389 621.357 329.69C621.8 328.983 622.393 328.429 623.134 328.028C623.876 327.628 624.694 327.33 625.589 327.134C626.492 326.929 627.4 326.767 628.312 326.648C629.505 326.494 630.472 326.379 631.214 326.303C631.964 326.217 632.509 326.077 632.85 325.881C633.2 325.685 633.374 325.344 633.374 324.858V324.756C633.374 323.494 633.029 322.514 632.339 321.815C631.657 321.116 630.621 320.767 629.232 320.767C627.792 320.767 626.663 321.082 625.844 321.713C625.026 322.344 624.451 323.017 624.119 323.733L621.255 322.71C621.766 321.517 622.448 320.588 623.3 319.923C624.161 319.25 625.099 318.781 626.113 318.517C627.136 318.244 628.141 318.108 629.13 318.108C629.761 318.108 630.485 318.185 631.303 318.338C632.13 318.483 632.927 318.786 633.694 319.246C634.469 319.706 635.113 320.401 635.624 321.33C636.136 322.259 636.391 323.503 636.391 325.062V338H633.374V335.341H633.221C633.016 335.767 632.675 336.223 632.198 336.709C631.721 337.195 631.086 337.608 630.293 337.949C629.501 338.29 628.533 338.46 627.391 338.46ZM627.852 335.75C629.045 335.75 630.05 335.516 630.869 335.047C631.695 334.578 632.317 333.973 632.735 333.232C633.161 332.49 633.374 331.71 633.374 330.892V328.131C633.246 328.284 632.965 328.425 632.531 328.553C632.104 328.672 631.61 328.778 631.048 328.872C630.494 328.957 629.952 329.034 629.424 329.102C628.904 329.162 628.482 329.213 628.158 329.256C627.374 329.358 626.641 329.524 625.96 329.754C625.286 329.976 624.741 330.312 624.323 330.764C623.914 331.207 623.71 331.812 623.71 332.58C623.71 333.628 624.097 334.42 624.873 334.957C625.657 335.486 626.65 335.75 627.852 335.75ZM641.898 338V318.364H644.813V321.33H645.017C645.375 320.358 646.023 319.57 646.961 318.964C647.898 318.359 648.955 318.057 650.131 318.057C650.353 318.057 650.63 318.061 650.962 318.07C651.294 318.078 651.546 318.091 651.716 318.108V321.176C651.614 321.151 651.38 321.112 651.013 321.061C650.655 321.001 650.276 320.972 649.875 320.972C648.921 320.972 648.069 321.172 647.319 321.572C646.577 321.964 645.989 322.51 645.554 323.209C645.128 323.899 644.915 324.687 644.915 325.574V338H641.898ZM655.293 338V318.364H658.31V338H655.293ZM656.827 315.091C656.239 315.091 655.732 314.891 655.305 314.49C654.888 314.089 654.679 313.608 654.679 313.045C654.679 312.483 654.888 312.001 655.305 311.601C655.732 311.2 656.239 311 656.827 311C657.415 311 657.918 311.2 658.335 311.601C658.761 312.001 658.974 312.483 658.974 313.045C658.974 313.608 658.761 314.089 658.335 314.49C657.918 314.891 657.415 315.091 656.827 315.091ZM666.853 326.188V338H663.836V318.364H666.75V321.432H667.006C667.466 320.435 668.165 319.634 669.103 319.028C670.04 318.415 671.25 318.108 672.733 318.108C674.063 318.108 675.226 318.381 676.223 318.926C677.221 319.463 677.996 320.281 678.55 321.381C679.104 322.472 679.381 323.852 679.381 325.523V338H676.364V325.727C676.364 324.185 675.963 322.983 675.162 322.122C674.361 321.253 673.262 320.818 671.864 320.818C670.901 320.818 670.04 321.027 669.282 321.445C668.532 321.862 667.939 322.472 667.505 323.273C667.07 324.074 666.853 325.045 666.853 326.188ZM692.82 345.773C691.363 345.773 690.11 345.585 689.062 345.21C688.013 344.844 687.14 344.358 686.441 343.753C685.751 343.156 685.201 342.517 684.792 341.835L687.195 340.148C687.468 340.506 687.813 340.915 688.231 341.375C688.648 341.844 689.219 342.249 689.944 342.589C690.677 342.939 691.636 343.114 692.82 343.114C694.406 343.114 695.714 342.73 696.745 341.963C697.776 341.196 698.292 339.994 698.292 338.358V334.369H698.036C697.815 334.727 697.499 335.17 697.09 335.699C696.69 336.219 696.11 336.683 695.352 337.092C694.602 337.493 693.587 337.693 692.309 337.693C690.724 337.693 689.3 337.318 688.039 336.568C686.786 335.818 685.793 334.727 685.06 333.295C684.336 331.864 683.974 330.125 683.974 328.08C683.974 326.068 684.327 324.317 685.035 322.825C685.742 321.325 686.727 320.166 687.988 319.348C689.249 318.521 690.707 318.108 692.36 318.108C693.638 318.108 694.653 318.321 695.403 318.747C696.161 319.165 696.741 319.642 697.141 320.179C697.55 320.707 697.866 321.142 698.087 321.483H698.394V318.364H701.309V338.562C701.309 340.25 700.925 341.622 700.158 342.679C699.4 343.744 698.377 344.524 697.09 345.018C695.812 345.521 694.388 345.773 692.82 345.773ZM692.718 334.983C693.928 334.983 694.951 334.706 695.786 334.152C696.621 333.598 697.256 332.801 697.691 331.761C698.126 330.722 698.343 329.477 698.343 328.028C698.343 326.614 698.13 325.365 697.704 324.283C697.278 323.2 696.647 322.352 695.812 321.739C694.977 321.125 693.945 320.818 692.718 320.818C691.44 320.818 690.374 321.142 689.522 321.79C688.678 322.437 688.043 323.307 687.617 324.398C687.2 325.489 686.991 326.699 686.991 328.028C686.991 329.392 687.204 330.598 687.63 331.646C688.065 332.686 688.704 333.504 689.548 334.101C690.4 334.689 691.457 334.983 692.718 334.983ZM721.406 338L715.423 318.364H718.593L722.837 333.398H723.042L727.235 318.364H730.457L734.599 333.347H734.803L739.048 318.364H742.218L736.235 338H733.269L728.974 322.915H728.667L724.371 338H721.406ZM746.207 338V318.364H749.224V338H746.207ZM747.741 315.091C747.153 315.091 746.646 314.891 746.219 314.49C745.802 314.089 745.593 313.608 745.593 313.045C745.593 312.483 745.802 312.001 746.219 311.601C746.646 311.2 747.153 311 747.741 311C748.329 311 748.832 311.2 749.249 311.601C749.675 312.001 749.888 312.483 749.888 313.045C749.888 313.608 749.675 314.089 749.249 314.49C748.832 314.891 748.329 315.091 747.741 315.091ZM763.289 318.364V320.92H753.113V318.364H763.289ZM756.079 313.659H759.096V332.375C759.096 333.227 759.22 333.866 759.467 334.293C759.723 334.71 760.047 334.991 760.439 335.136C760.839 335.273 761.261 335.341 761.704 335.341C762.037 335.341 762.309 335.324 762.522 335.29C762.735 335.247 762.906 335.213 763.034 335.188L763.647 337.898C763.443 337.974 763.157 338.051 762.791 338.128C762.424 338.213 761.96 338.256 761.397 338.256C760.545 338.256 759.71 338.072 758.892 337.706C758.082 337.339 757.409 336.781 756.872 336.031C756.343 335.281 756.079 334.335 756.079 333.193V313.659ZM771.267 326.188V338H768.25V311.818H771.267V321.432H771.522C771.983 320.418 772.673 319.612 773.593 319.016C774.522 318.411 775.758 318.108 777.301 318.108C778.639 318.108 779.811 318.376 780.816 318.913C781.822 319.442 782.602 320.256 783.156 321.355C783.718 322.446 784 323.835 784 325.523V338H780.983V325.727C780.983 324.168 780.578 322.962 779.768 322.109C778.967 321.249 777.855 320.818 776.431 320.818C775.443 320.818 774.556 321.027 773.772 321.445C772.997 321.862 772.383 322.472 771.931 323.273C771.488 324.074 771.267 325.045 771.267 326.188ZM807.877 338.409C805.985 338.409 804.353 337.991 802.981 337.156C801.617 336.312 800.565 335.136 799.823 333.628C799.09 332.111 798.724 330.347 798.724 328.335C798.724 326.324 799.09 324.551 799.823 323.017C800.565 321.474 801.596 320.273 802.917 319.412C804.246 318.543 805.798 318.108 807.57 318.108C808.593 318.108 809.603 318.278 810.6 318.619C811.597 318.96 812.505 319.514 813.323 320.281C814.141 321.04 814.793 322.045 815.279 323.298C815.765 324.551 816.008 326.094 816.008 327.926V329.205H800.871V326.597H812.94C812.94 325.489 812.718 324.5 812.275 323.631C811.84 322.761 811.218 322.075 810.408 321.572C809.607 321.07 808.661 320.818 807.57 320.818C806.369 320.818 805.329 321.116 804.451 321.713C803.582 322.301 802.913 323.068 802.444 324.014C801.975 324.96 801.741 325.974 801.741 327.057V328.795C801.741 330.278 801.996 331.536 802.508 332.567C803.028 333.589 803.748 334.369 804.668 334.906C805.589 335.435 806.658 335.699 807.877 335.699C808.67 335.699 809.386 335.588 810.025 335.366C810.673 335.136 811.231 334.795 811.7 334.344C812.168 333.884 812.531 333.312 812.786 332.631L815.701 333.449C815.394 334.438 814.879 335.307 814.154 336.057C813.43 336.798 812.535 337.378 811.469 337.795C810.404 338.205 809.207 338.409 807.877 338.409ZM834.506 322.761L831.796 323.528C831.626 323.077 831.374 322.638 831.042 322.212C830.718 321.777 830.275 321.419 829.712 321.138C829.15 320.857 828.43 320.716 827.552 320.716C826.35 320.716 825.349 320.993 824.548 321.547C823.755 322.092 823.359 322.787 823.359 323.631C823.359 324.381 823.631 324.973 824.177 325.408C824.722 325.842 825.575 326.205 826.734 326.494L829.648 327.21C831.404 327.636 832.712 328.288 833.573 329.166C834.434 330.036 834.864 331.156 834.864 332.528C834.864 333.653 834.54 334.659 833.893 335.545C833.254 336.432 832.359 337.131 831.208 337.642C830.058 338.153 828.719 338.409 827.194 338.409C825.191 338.409 823.533 337.974 822.221 337.105C820.908 336.236 820.077 334.966 819.728 333.295L822.592 332.58C822.864 333.636 823.38 334.429 824.138 334.957C824.906 335.486 825.907 335.75 827.143 335.75C828.549 335.75 829.665 335.452 830.492 334.855C831.327 334.25 831.745 333.526 831.745 332.682C831.745 332 831.506 331.429 831.029 330.969C830.552 330.5 829.819 330.151 828.83 329.92L825.558 329.153C823.759 328.727 822.438 328.067 821.594 327.172C820.759 326.268 820.342 325.139 820.342 323.784C820.342 322.676 820.653 321.696 821.275 320.844C821.906 319.991 822.762 319.322 823.844 318.837C824.935 318.351 826.171 318.108 827.552 318.108C829.495 318.108 831.021 318.534 832.129 319.386C833.245 320.239 834.038 321.364 834.506 322.761ZM853.315 322.761L850.605 323.528C850.434 323.077 850.183 322.638 849.85 322.212C849.527 321.777 849.083 321.419 848.521 321.138C847.958 320.857 847.238 320.716 846.36 320.716C845.159 320.716 844.157 320.993 843.356 321.547C842.564 322.092 842.167 322.787 842.167 323.631C842.167 324.381 842.44 324.973 842.985 325.408C843.531 325.842 844.383 326.205 845.542 326.494L848.457 327.21C850.213 327.636 851.521 328.288 852.382 329.166C853.243 330.036 853.673 331.156 853.673 332.528C853.673 333.653 853.349 334.659 852.701 335.545C852.062 336.432 851.167 337.131 850.017 337.642C848.866 338.153 847.528 338.409 846.002 338.409C844 338.409 842.342 337.974 841.029 337.105C839.717 336.236 838.886 334.966 838.537 333.295L841.4 332.58C841.673 333.636 842.189 334.429 842.947 334.957C843.714 335.486 844.716 335.75 845.951 335.75C847.358 335.75 848.474 335.452 849.301 334.855C850.136 334.25 850.554 333.526 850.554 332.682C850.554 332 850.315 331.429 849.838 330.969C849.36 330.5 848.627 330.151 847.639 329.92L844.366 329.153C842.568 328.727 841.247 328.067 840.403 327.172C839.568 326.268 839.15 325.139 839.15 323.784C839.15 322.676 839.461 321.696 840.083 320.844C840.714 319.991 841.571 319.322 842.653 318.837C843.744 318.351 844.98 318.108 846.36 318.108C848.304 318.108 849.829 318.534 850.937 319.386C852.054 320.239 852.846 321.364 853.315 322.761ZM866.447 338.409C864.555 338.409 862.923 337.991 861.551 337.156C860.188 336.312 859.135 335.136 858.393 333.628C857.661 332.111 857.294 330.347 857.294 328.335C857.294 326.324 857.661 324.551 858.393 323.017C859.135 321.474 860.166 320.273 861.487 319.412C862.817 318.543 864.368 318.108 866.141 318.108C867.163 318.108 868.173 318.278 869.17 318.619C870.168 318.96 871.075 319.514 871.893 320.281C872.712 321.04 873.364 322.045 873.849 323.298C874.335 324.551 874.578 326.094 874.578 327.926V329.205H859.442V326.597H871.51C871.51 325.489 871.288 324.5 870.845 323.631C870.411 322.761 869.788 322.075 868.979 321.572C868.178 321.07 867.232 320.818 866.141 320.818C864.939 320.818 863.899 321.116 863.021 321.713C862.152 322.301 861.483 323.068 861.014 324.014C860.545 324.96 860.311 325.974 860.311 327.057V328.795C860.311 330.278 860.567 331.536 861.078 332.567C861.598 333.589 862.318 334.369 863.239 334.906C864.159 335.435 865.229 335.699 866.447 335.699C867.24 335.699 867.956 335.588 868.595 335.366C869.243 335.136 869.801 334.795 870.27 334.344C870.739 333.884 871.101 333.312 871.357 332.631L874.271 333.449C873.964 334.438 873.449 335.307 872.724 336.057C872 336.798 871.105 337.378 870.04 337.795C868.974 338.205 867.777 338.409 866.447 338.409ZM882.185 326.188V338H879.168V318.364H882.082V321.432H882.338C882.798 320.435 883.497 319.634 884.435 319.028C885.372 318.415 886.582 318.108 888.065 318.108C889.395 318.108 890.558 318.381 891.555 318.926C892.553 319.463 893.328 320.281 893.882 321.381C894.436 322.472 894.713 323.852 894.713 325.523V338H891.696V325.727C891.696 324.185 891.295 322.983 890.494 322.122C889.693 321.253 888.594 320.818 887.196 320.818C886.233 320.818 885.372 321.027 884.614 321.445C883.864 321.862 883.271 322.472 882.837 323.273C882.402 324.074 882.185 325.045 882.185 326.188ZM908.203 338.409C906.363 338.409 904.777 337.974 903.448 337.105C902.118 336.236 901.096 335.038 900.38 333.513C899.664 331.987 899.306 330.244 899.306 328.284C899.306 326.29 899.672 324.53 900.405 323.004C901.147 321.47 902.178 320.273 903.499 319.412C904.828 318.543 906.38 318.108 908.152 318.108C909.533 318.108 910.777 318.364 911.885 318.875C912.993 319.386 913.901 320.102 914.608 321.023C915.316 321.943 915.755 323.017 915.925 324.244H912.908C912.678 323.349 912.167 322.557 911.374 321.866C910.59 321.168 909.533 320.818 908.203 320.818C907.027 320.818 905.996 321.125 905.11 321.739C904.232 322.344 903.546 323.2 903.051 324.308C902.566 325.408 902.323 326.699 902.323 328.182C902.323 329.699 902.561 331.02 903.039 332.145C903.525 333.27 904.206 334.143 905.084 334.766C905.971 335.388 907.01 335.699 908.203 335.699C908.988 335.699 909.699 335.562 910.338 335.29C910.978 335.017 911.519 334.625 911.962 334.114C912.405 333.602 912.721 332.989 912.908 332.273H915.925C915.755 333.432 915.333 334.476 914.659 335.405C913.995 336.325 913.113 337.058 912.013 337.604C910.922 338.141 909.652 338.409 908.203 338.409ZM928.569 338.409C926.676 338.409 925.044 337.991 923.672 337.156C922.309 336.312 921.256 335.136 920.515 333.628C919.782 332.111 919.415 330.347 919.415 328.335C919.415 326.324 919.782 324.551 920.515 323.017C921.256 321.474 922.287 320.273 923.608 319.412C924.938 318.543 926.489 318.108 928.262 318.108C929.284 318.108 930.294 318.278 931.292 318.619C932.289 318.96 933.196 319.514 934.015 320.281C934.833 321.04 935.485 322.045 935.971 323.298C936.456 324.551 936.699 326.094 936.699 327.926V329.205H921.563V326.597H933.631C933.631 325.489 933.409 324.5 932.966 323.631C932.532 322.761 931.909 322.075 931.1 321.572C930.299 321.07 929.353 320.818 928.262 320.818C927.06 320.818 926.02 321.116 925.142 321.713C924.273 322.301 923.604 323.068 923.135 324.014C922.667 324.96 922.432 325.974 922.432 327.057V328.795C922.432 330.278 922.688 331.536 923.199 332.567C923.719 333.589 924.439 334.369 925.36 334.906C926.28 335.435 927.35 335.699 928.569 335.699C929.361 335.699 930.077 335.588 930.716 335.366C931.364 335.136 931.922 334.795 932.391 334.344C932.86 333.884 933.222 333.312 933.478 332.631L936.392 333.449C936.086 334.438 935.57 335.307 934.846 336.057C934.121 336.798 933.226 337.378 932.161 337.795C931.096 338.205 929.898 338.409 928.569 338.409Z" fill="#201A21"/>
</svg>
