<svg width="152" height="219" viewBox="0 0 152 219" fill="none" xmlns="http://www.w3.org/2000/svg">
<path d="M70.6956 46.2722V77.7602C70.6956 97.9202 64.0716 108.96 47.5596 108.96C35.3676 108.96 28.4556 102.816 24.8076 97.1522L28.0716 86.1122H29.0316C30.8556 98.5922 36.5196 108 47.9436 108C59.7516 108 63.1116 98.0162 63.1116 79.6802V46.2722C63.1116 43.6802 61.3836 41.9522 58.7916 41.9522H58.3116V40.9922H75.4956V41.9522H75.0156C72.4236 41.9522 70.6956 43.6802 70.6956 46.2722Z" fill="#CEAE67"/>
<path d="M56.504 145.04H58.04V146H46.328V145.04H46.808C49.4 145.04 52.184 143.696 53.72 141.584L72.92 115.472L53.144 83.6002C51.8 81.3922 49.112 79.9522 46.52 79.9522H46.04V78.9922H65.624V79.9522H64.28C61.688 79.9522 60.824 81.3922 62.264 83.6002L77.912 108.752L96.632 83.4082C98.168 81.2962 97.496 79.9522 94.904 79.9522H93.464V78.9922H105.176V79.9522H104.696C102.104 79.9522 99.32 81.2962 97.784 83.4082L78.392 109.616L98.072 141.392C99.512 143.6 102.104 145.04 104.696 145.04H105.272V146H85.688V145.04H87.128C89.624 145.04 90.392 143.6 89.048 141.392L73.496 116.336L54.776 141.584C53.24 143.696 53.912 145.04 56.504 145.04Z" fill="#CEAE67"/>
<path d="M95.9125 112.952H95.4325C92.9365 112.952 91.2085 114.68 91.2085 117.272V178.04H113.193C120.105 178.04 125.673 173.528 126.921 166.712L127.497 163.736H128.457L125.577 179H78.7285V178.04H79.2085C81.8005 178.04 83.5285 176.312 83.5285 173.72V117.272C83.5285 114.68 81.8005 112.952 79.2085 112.952H78.7285V111.992H95.9125V112.952Z" fill="#CEAE67"/>
<rect x="7.5" y="6.5" width="137" height="203" rx="56.5" stroke="#CEAE67" stroke-width="3"/>
<rect x="1.5" y="1.5" width="149" height="216" rx="56.5" stroke="#CEAE67" stroke-width="3"/>
</svg>
